<svg width="30" height="31" viewBox="0 0 30 31" fill="none" xmlns="http://www.w3.org/2000/svg">
<ellipse cx="10.2016" cy="25.721" rx="5.10002" ry="5.06724" fill="#F66248"/>
<ellipse cx="19.7992" cy="25.721" rx="5.10002" ry="5.06724" fill="#F66248"/>
<ellipse cx="24.9008" cy="18.2694" rx="5.10002" ry="5.06724" fill="#F66248"/>
<ellipse cx="23.1" cy="9.62534" rx="5.10002" ry="5.06724" fill="#F66248"/>
<ellipse cx="15.2992" cy="6.0482" rx="5.10002" ry="5.06724" fill="#F66248"/>
<ellipse cx="8.10002" cy="9.62534" rx="5.10002" ry="5.06724" fill="#F66248"/>
<ellipse cx="5.10002" cy="18.2694" rx="5.10002" ry="5.06724" fill="#F66248"/>
<ellipse cx="15.0247" cy="16.5503" rx="8.09894" ry="8.04688" fill="#FFE175"/>
<path d="M11 14C11 13.8674 11.0527 13.7402 11.1464 13.6464C11.2402 13.5527 11.3674 13.5 11.5 13.5H18.5C18.6326 13.5 18.7598 13.5527 18.8536 13.6464C18.9473 13.7402 19 13.8674 19 14C19 14.1326 18.9473 14.2598 18.8536 14.3536C18.7598 14.4473 18.6326 14.5 18.5 14.5H11.5C11.3674 14.5 11.2402 14.4473 11.1464 14.3536C11.0527 14.2598 11 14.1326 11 14ZM11 17C11 16.8674 11.0527 16.7402 11.1464 16.6464C11.2402 16.5527 11.3674 16.5 11.5 16.5H18.5C18.6326 16.5 18.7598 16.5527 18.8536 16.6464C18.9473 16.7402 19 16.8674 19 17C19 17.1326 18.9473 17.2598 18.8536 17.3536C18.7598 17.4473 18.6326 17.5 18.5 17.5H11.5C11.3674 17.5 11.2402 17.4473 11.1464 17.3536C11.0527 17.2598 11 17.1326 11 17ZM11.5 19.5C11.3674 19.5 11.2402 19.5527 11.1464 19.6464C11.0527 19.7402 11 19.8674 11 20C11 20.1326 11.0527 20.2598 11.1464 20.3536C11.2402 20.4473 11.3674 20.5 11.5 20.5H18.5C18.6326 20.5 18.7598 20.4473 18.8536 20.3536C18.9473 20.2598 19 20.1326 19 20C19 19.8674 18.9473 19.7402 18.8536 19.6464C18.7598 19.5527 18.6326 19.5 18.5 19.5H11.5Z" fill="black"/>
</svg>
