<svg width="530" height="324" viewBox="0 0 530 324" fill="none" xmlns="http://www.w3.org/2000/svg">
<rect width="530" height="324" fill="#FEFEF2"/>
<rect x="160.105" y="5" width="41.2079" height="27.7074" rx="2" transform="rotate(90 160.105 5)" fill="#FFE175" fill-opacity="0.41"/>
<rect x="134.422" y="43.9709" width="41.2079" height="27.7074" rx="2" transform="rotate(90 134.422 43.9709)" fill="#FFE175" fill-opacity="0.41"/>
<rect x="160.719" y="82.3748" width="41.2079" height="27.7074" rx="2" transform="rotate(90 160.719 82.3748)" fill="#FFE175" fill-opacity="0.41"/>
<rect x="108.555" y="5.28027" width="41.2079" height="27.7074" rx="2" transform="rotate(90 108.555 5.28027)" fill="#FFE175" fill-opacity="0.41"/>
<rect x="82.7227" y="44.2515" width="41.2079" height="27.7074" rx="2" transform="rotate(90 82.7227 44.2515)" fill="#FFE175" fill-opacity="0.41"/>
<rect x="108.93" y="82.6545" width="41.2079" height="27.7074" rx="2" transform="rotate(90 108.93 82.6545)" fill="#FFE175" fill-opacity="0.41"/>
<rect x="56.8633" y="5.84155" width="41.2079" height="27.7074" rx="2" transform="rotate(90 56.8633 5.84155)" fill="#FFE175" fill-opacity="0.41"/>
<rect x="32.1289" y="44.812" width="41.2079" height="27.7074" rx="2" transform="rotate(90 32.1289 44.812)" fill="#FFE175" fill-opacity="0.41"/>
<rect x="57.2383" y="83.2158" width="41.2079" height="27.7074" rx="2" transform="rotate(90 57.2383 83.2158)" fill="#FFE175" fill-opacity="0.41"/>
<rect x="135.234" y="121.121" width="41.2079" height="27.7074" rx="2" transform="rotate(90 135.234 121.121)" fill="#FFE175" fill-opacity="0.41"/>
<rect x="109.402" y="160.092" width="41.2079" height="27.7074" rx="2" transform="rotate(90 109.402 160.092)" fill="#FFE175" fill-opacity="0.41"/>
<rect x="135.609" y="198.496" width="41.2079" height="27.7074" rx="2" transform="rotate(90 135.609 198.496)" fill="#FFE175" fill-opacity="0.41"/>
<rect x="83.5469" y="121.534" width="41.2079" height="27.7074" rx="2" transform="rotate(90 83.5469 121.534)" fill="#FFE175" fill-opacity="0.41"/>
<rect x="57.7148" y="160.502" width="41.2079" height="27.7074" rx="2" transform="rotate(90 57.7148 160.502)" fill="#FFE175" fill-opacity="0.41"/>
<rect x="83.9219" y="198.909" width="41.2079" height="27.7074" rx="2" transform="rotate(90 83.9219 198.909)" fill="#FFE175" fill-opacity="0.41"/>
<rect x="31.8516" y="121.953" width="41.2079" height="27.7074" rx="2" transform="rotate(90 31.8516 121.953)" fill="#FFE175" fill-opacity="0.41"/>
<rect x="32.2266" y="199.327" width="41.2079" height="27.7074" rx="2" transform="rotate(90 32.2266 199.327)" fill="#FFE175" fill-opacity="0.41"/>
<rect x="161.086" y="159.528" width="41.2079" height="27.7074" rx="2" transform="rotate(90 161.086 159.528)" fill="#FFE175" fill-opacity="0.41"/>
<rect x="317.035" y="5" width="41.2079" height="27.7074" rx="2" transform="rotate(90 317.035 5)" fill="#FFE175" fill-opacity="0.41"/>
<rect x="291.352" y="43.9709" width="41.2079" height="27.7074" rx="2" transform="rotate(90 291.352 43.9709)" fill="#FFE175" fill-opacity="0.41"/>
<rect x="317.648" y="82.3748" width="41.2079" height="27.7074" rx="2" transform="rotate(90 317.648 82.3748)" fill="#FFE175" fill-opacity="0.41"/>
<rect x="265.496" y="5.28027" width="41.2079" height="27.7074" rx="2" transform="rotate(90 265.496 5.28027)" fill="#FFE175" fill-opacity="0.41"/>
<rect x="239.668" y="44.2515" width="41.2079" height="27.7074" rx="2" transform="rotate(90 239.668 44.2515)" fill="#FFE175" fill-opacity="0.41"/>
<rect x="265.871" y="82.6545" width="41.2079" height="27.7074" rx="2" transform="rotate(90 265.871 82.6545)" fill="#FFE175" fill-opacity="0.41"/>
<rect x="213.797" y="5.84155" width="41.2079" height="27.7074" rx="2" transform="rotate(90 213.797 5.84155)" fill="#FFE175" fill-opacity="0.41"/>
<rect x="189.062" y="44.812" width="41.2079" height="27.7074" rx="2" transform="rotate(90 189.062 44.812)" fill="#FFE175" fill-opacity="0.41"/>
<rect x="214.172" y="83.2158" width="41.2079" height="27.7074" rx="2" transform="rotate(90 214.172 83.2158)" fill="#FFE175" fill-opacity="0.41"/>
<rect x="292.168" y="121.121" width="41.2079" height="27.7074" rx="2" transform="rotate(90 292.168 121.121)" fill="#FFE175" fill-opacity="0.41"/>
<rect x="266.336" y="160.092" width="41.2079" height="27.7074" rx="2" transform="rotate(90 266.336 160.092)" fill="#FFE175" fill-opacity="0.41"/>
<rect x="292.543" y="198.496" width="41.2079" height="27.7074" rx="2" transform="rotate(90 292.543 198.496)" fill="#FFE175" fill-opacity="0.41"/>
<rect x="240.48" y="121.534" width="41.2079" height="27.7074" rx="2" transform="rotate(90 240.48 121.534)" fill="#FFE175" fill-opacity="0.41"/>
<rect x="214.648" y="160.502" width="41.2079" height="27.7074" rx="2" transform="rotate(90 214.648 160.502)" fill="#FFE175" fill-opacity="0.41"/>
<rect x="240.855" y="198.909" width="41.2079" height="27.7074" rx="2" transform="rotate(90 240.855 198.909)" fill="#FFE175" fill-opacity="0.41"/>
<rect x="188.789" y="121.953" width="41.2079" height="27.7074" rx="2" transform="rotate(90 188.789 121.953)" fill="#FFE175" fill-opacity="0.41"/>
<rect x="189.164" y="199.327" width="41.2079" height="27.7074" rx="2" transform="rotate(90 189.164 199.327)" fill="#FFE175" fill-opacity="0.41"/>
<rect x="318.023" y="159.528" width="41.2079" height="27.7074" rx="2" transform="rotate(90 318.023 159.528)" fill="#FFE175" fill-opacity="0.41"/>
<rect x="472.898" y="5" width="41.2079" height="27.7074" rx="2" transform="rotate(90 472.898 5)" fill="#FFE175" fill-opacity="0.41"/>
<rect x="447.223" y="43.9709" width="41.2079" height="27.7074" rx="2" transform="rotate(90 447.223 43.9709)" fill="#FFE175" fill-opacity="0.41"/>
<rect x="473.512" y="82.3748" width="41.2079" height="27.7074" rx="2" transform="rotate(90 473.512 82.3748)" fill="#FFE175" fill-opacity="0.41"/>
<rect x="421.359" y="5.28027" width="41.2079" height="27.7074" rx="2" transform="rotate(90 421.359 5.28027)" fill="#FFE175" fill-opacity="0.41"/>
<rect x="395.531" y="44.2515" width="41.2079" height="27.7074" rx="2" transform="rotate(90 395.531 44.2515)" fill="#FFE175" fill-opacity="0.41"/>
<rect x="421.734" y="82.6545" width="41.2079" height="27.7074" rx="2" transform="rotate(90 421.734 82.6545)" fill="#FFE175" fill-opacity="0.41"/>
<rect x="369.676" y="5.84155" width="41.2079" height="27.7074" rx="2" transform="rotate(90 369.676 5.84155)" fill="#FFE175" fill-opacity="0.41"/>
<rect x="344.941" y="44.812" width="41.2079" height="27.7074" rx="2" transform="rotate(90 344.941 44.812)" fill="#FFE175" fill-opacity="0.41"/>
<rect x="370.051" y="83.2158" width="41.2079" height="27.7074" rx="2" transform="rotate(90 370.051 83.2158)" fill="#FFE175" fill-opacity="0.41"/>
<rect x="448.027" y="121.121" width="41.2079" height="27.7074" rx="2" transform="rotate(90 448.027 121.121)" fill="#FFE175" fill-opacity="0.41"/>
<rect x="422.195" y="160.092" width="41.2079" height="27.7074" rx="2" transform="rotate(90 422.195 160.092)" fill="#FFE175" fill-opacity="0.41"/>
<rect x="448.402" y="198.496" width="41.2079" height="27.7074" rx="2" transform="rotate(90 448.402 198.496)" fill="#FFE175" fill-opacity="0.41"/>
<rect x="396.348" y="121.534" width="41.2079" height="27.7074" rx="2" transform="rotate(90 396.348 121.534)" fill="#FFE175" fill-opacity="0.41"/>
<rect x="370.52" y="160.502" width="41.2079" height="27.7074" rx="2" transform="rotate(90 370.52 160.502)" fill="#FFE175" fill-opacity="0.41"/>
<rect x="396.723" y="198.909" width="41.2079" height="27.7074" rx="2" transform="rotate(90 396.723 198.909)" fill="#FFE175" fill-opacity="0.41"/>
<rect x="344.664" y="121.954" width="41.2079" height="27.7074" rx="2" transform="rotate(90 344.664 121.954)" fill="#FFE175" fill-opacity="0.41"/>
<rect x="345.039" y="199.328" width="41.2079" height="27.7074" rx="2" transform="rotate(90 345.039 199.328)" fill="#FFE175" fill-opacity="0.41"/>
<rect x="473.895" y="159.528" width="41.2079" height="27.7074" rx="2" transform="rotate(90 473.895 159.528)" fill="#FFE175" fill-opacity="0.41"/>
<rect x="524.855" y="5" width="41.2079" height="27.7074" rx="2" transform="rotate(90 524.855 5)" fill="#FFE175" fill-opacity="0.41"/>
<rect x="499.168" y="43.9709" width="41.2079" height="27.7074" rx="2" transform="rotate(90 499.168 43.9709)" fill="#FFE175" fill-opacity="0.41"/>
<rect x="525.469" y="82.3748" width="41.2079" height="27.7074" rx="2" transform="rotate(90 525.469 82.3748)" fill="#FFE175" fill-opacity="0.41"/>
<rect x="499.984" y="121.121" width="41.2079" height="27.7074" rx="2" transform="rotate(90 499.984 121.121)" fill="#FFE175" fill-opacity="0.41"/>
<rect x="500.359" y="198.496" width="41.2079" height="27.7074" rx="2" transform="rotate(90 500.359 198.496)" fill="#FFE175" fill-opacity="0.41"/>
<rect x="525.844" y="159.528" width="41.2079" height="27.7074" rx="2" transform="rotate(90 525.844 159.528)" fill="#FFE175" fill-opacity="0.41"/>
<rect x="161.145" y="239.984" width="40.945" height="27.7074" rx="2" transform="rotate(90 161.145 239.984)" fill="#FFE175" fill-opacity="0.41"/>
<rect x="135.461" y="278.707" width="40.945" height="27.7074" rx="2" transform="rotate(90 135.461 278.707)" fill="#FFE175" fill-opacity="0.41"/>
<rect x="109.598" y="240.263" width="40.945" height="27.7074" rx="2" transform="rotate(90 109.598 240.263)" fill="#FFE175" fill-opacity="0.41"/>
<rect x="83.7734" y="278.985" width="40.945" height="27.7074" rx="2" transform="rotate(90 83.7734 278.985)" fill="#FFE175" fill-opacity="0.41"/>
<rect x="57.9062" y="240.82" width="40.945" height="27.7074" rx="2" transform="rotate(90 57.9062 240.82)" fill="#FFE175" fill-opacity="0.41"/>
<rect x="33.168" y="279.542" width="40.945" height="27.7074" rx="2" transform="rotate(90 33.168 279.542)" fill="#FFE175" fill-opacity="0.41"/>
<rect x="318.078" y="239.984" width="40.945" height="27.7074" rx="2" transform="rotate(90 318.078 239.984)" fill="#FFE175" fill-opacity="0.41"/>
<rect x="292.398" y="278.707" width="40.945" height="27.7074" rx="2" transform="rotate(90 292.398 278.707)" fill="#FFE175" fill-opacity="0.41"/>
<rect x="266.535" y="240.263" width="40.945" height="27.7074" rx="2" transform="rotate(90 266.535 240.263)" fill="#FFE175" fill-opacity="0.41"/>
<rect x="240.711" y="278.985" width="40.945" height="27.7074" rx="2" transform="rotate(90 240.711 278.985)" fill="#FFE175" fill-opacity="0.41"/>
<rect x="214.848" y="240.82" width="40.945" height="27.7074" rx="2" transform="rotate(90 214.848 240.82)" fill="#FFE175" fill-opacity="0.41"/>
<rect x="190.109" y="279.542" width="40.945" height="27.7074" rx="2" transform="rotate(90 190.109 279.542)" fill="#FFE175" fill-opacity="0.41"/>
<rect x="473.953" y="239.984" width="40.945" height="27.7074" rx="2" transform="rotate(90 473.953 239.984)" fill="#FFE175" fill-opacity="0.41"/>
<rect x="448.273" y="278.707" width="40.945" height="27.7074" rx="2" transform="rotate(90 448.273 278.707)" fill="#FFE175" fill-opacity="0.41"/>
<rect x="422.406" y="240.263" width="40.945" height="27.7074" rx="2" transform="rotate(90 422.406 240.263)" fill="#FFE175" fill-opacity="0.41"/>
<rect x="396.582" y="278.985" width="40.945" height="27.7074" rx="2" transform="rotate(90 396.582 278.985)" fill="#FFE175" fill-opacity="0.41"/>
<rect x="370.719" y="240.82" width="40.945" height="27.7074" rx="2" transform="rotate(90 370.719 240.82)" fill="#FFE175" fill-opacity="0.41"/>
<rect x="345.98" y="279.542" width="40.945" height="27.7074" rx="2" transform="rotate(90 345.98 279.542)" fill="#FFE175" fill-opacity="0.41"/>
<rect x="525.902" y="239.984" width="40.945" height="27.7074" rx="2" transform="rotate(90 525.902 239.984)" fill="#FFE175" fill-opacity="0.41"/>
<rect x="500.219" y="278.707" width="40.945" height="27.7074" rx="2" transform="rotate(90 500.219 278.707)" fill="#FFE175" fill-opacity="0.41"/>
</svg>
