<svg width="1376" height="159" viewBox="0 0 1376 159" fill="none" xmlns="http://www.w3.org/2000/svg">
<path d="M0 29H531.429L689.143 83.5M1376 29H843.429L689.143 83.5M0 83.5H689.143M1376 83.5H689.143M0 138H531.429L689.143 83.5M1376 138H843.429L689.143 83.5" stroke="#F66248" stroke-width="2"/>
<ellipse cx="662.14" cy="131.97" rx="27.0693" ry="27.03" fill="#F66248"/>
<ellipse cx="713.093" cy="131.97" rx="27.0693" ry="27.03" fill="#F66248"/>
<ellipse cx="740.163" cy="92.2199" rx="27.0693" ry="27.03" fill="#F66248"/>
<ellipse cx="730.608" cy="46.1098" rx="27.0693" ry="27.03" fill="#F66248"/>
<ellipse cx="689.206" cy="27.03" rx="27.0693" ry="27.03" fill="#F66248"/>
<ellipse cx="650.991" cy="46.1098" rx="27.0693" ry="27.03" fill="#F66248"/>
<ellipse cx="635.069" cy="92.2199" rx="27.0693" ry="27.03" fill="#F66248"/>
<ellipse cx="687.76" cy="83.0504" rx="42.9867" ry="42.9242" fill="#FFE175"/>
<path d="M651.99 91.875H657.283V73.8086H651.99V70.6836H666.6C668.331 70.6836 669.855 70.7292 671.17 70.8203C672.485 70.8984 673.676 71.0807 674.744 71.3672C677.544 72.1354 679.64 73.457 681.033 75.332C682.426 77.207 683.123 79.707 683.123 82.832C683.123 84.2643 682.954 85.5924 682.615 86.8164C682.29 88.0273 681.782 89.1211 681.092 90.0977C680.415 91.0612 679.555 91.888 678.514 92.5781C677.485 93.2682 676.268 93.8021 674.861 94.1797C673.807 94.4661 672.609 94.6745 671.268 94.8047C669.939 94.9349 668.449 95 666.795 95H651.99V91.875ZM666.17 96.3672C667.081 96.3672 667.98 96.3411 668.865 96.2891C669.751 96.25 670.59 96.1914 671.385 96.1133C672.179 96.0352 672.908 95.9375 673.572 95.8203C674.249 95.7161 674.835 95.599 675.33 95.4688C676.736 95.1042 678.006 94.5508 679.139 93.8086C680.285 93.0534 681.255 92.1419 682.049 91.0742C682.843 89.9935 683.455 88.763 683.885 87.3828C684.314 85.9896 684.529 84.4727 684.529 82.832C684.529 81.6211 684.419 80.5273 684.197 79.5508C683.976 78.5612 683.65 77.6628 683.221 76.8555C682.791 76.0352 682.257 75.2865 681.619 74.6094C680.994 73.9323 680.271 73.2943 679.451 72.6953C680.402 73.1771 681.242 73.737 681.971 74.375C682.7 75.013 683.312 75.7487 683.807 76.582C684.301 77.4154 684.679 78.3529 684.939 79.3945C685.2 80.4232 685.33 81.569 685.33 82.832C685.33 84.5117 685.109 86.0807 684.666 87.5391C684.236 88.9844 683.605 90.2865 682.771 91.4453C681.938 92.5911 680.91 93.5677 679.686 94.375C678.462 95.1823 677.062 95.7878 675.486 96.1914C674.38 96.4648 673.058 96.6862 671.521 96.8555C669.985 97.0247 668.201 97.1094 666.17 97.1094H653.24V96.3672H666.17ZM667.732 91.875C669.66 91.875 671.287 91.7057 672.615 91.3672C673.943 91.0286 675.018 90.5078 675.838 89.8047C676.658 89.1016 677.251 88.2031 677.615 87.1094C677.98 86.0156 678.162 84.707 678.162 83.1836V82.4609C678.162 80.9766 677.973 79.694 677.596 78.6133C677.231 77.5326 676.632 76.6341 675.799 75.918C674.965 75.2018 673.872 74.6745 672.518 74.3359C671.176 73.9844 669.523 73.8086 667.557 73.8086H661.678V91.875H667.732ZM663.045 75.1758H667.186C668.488 75.1758 669.588 75.2279 670.486 75.332C671.385 75.4232 672.146 75.5729 672.771 75.7812C673.41 75.9766 673.956 76.237 674.412 76.5625C674.881 76.888 675.337 77.2786 675.779 77.7344C675.298 77.4349 674.79 77.1745 674.256 76.9531C673.735 76.7188 673.143 76.5299 672.479 76.3867C671.814 76.2305 671.053 76.1133 670.193 76.0352C669.334 75.957 668.331 75.918 667.186 75.918H663.826V90.7031H663.045V75.1758ZM653.162 75.1758H656.463V75.918H653.162V75.1758ZM690.389 91.875H695.682V73.8086H690.389V70.6836H704.998C706.73 70.6836 708.253 70.7292 709.568 70.8203C710.883 70.8984 712.075 71.0807 713.143 71.3672C715.942 72.1354 718.038 73.457 719.432 75.332C720.825 77.207 721.521 79.707 721.521 82.832C721.521 84.2643 721.352 85.5924 721.014 86.8164C720.688 88.0273 720.18 89.1211 719.49 90.0977C718.813 91.0612 717.954 91.888 716.912 92.5781C715.883 93.2682 714.666 93.8021 713.26 94.1797C712.205 94.4661 711.007 94.6745 709.666 94.8047C708.338 94.9349 706.847 95 705.193 95H690.389V91.875ZM704.568 96.3672C705.48 96.3672 706.378 96.3411 707.264 96.2891C708.149 96.25 708.989 96.1914 709.783 96.1133C710.577 96.0352 711.307 95.9375 711.971 95.8203C712.648 95.7161 713.234 95.599 713.729 95.4688C715.135 95.1042 716.404 94.5508 717.537 93.8086C718.683 93.0534 719.653 92.1419 720.447 91.0742C721.242 89.9935 721.854 88.763 722.283 87.3828C722.713 85.9896 722.928 84.4727 722.928 82.832C722.928 81.6211 722.817 80.5273 722.596 79.5508C722.374 78.5612 722.049 77.6628 721.619 76.8555C721.189 76.0352 720.656 75.2865 720.018 74.6094C719.393 73.9323 718.67 73.2943 717.85 72.6953C718.8 73.1771 719.64 73.737 720.369 74.375C721.098 75.013 721.71 75.7487 722.205 76.582C722.7 77.4154 723.077 78.3529 723.338 79.3945C723.598 80.4232 723.729 81.569 723.729 82.832C723.729 84.5117 723.507 86.0807 723.064 87.5391C722.635 88.9844 722.003 90.2865 721.17 91.4453C720.337 92.5911 719.308 93.5677 718.084 94.375C716.86 95.1823 715.46 95.7878 713.885 96.1914C712.778 96.4648 711.456 96.6862 709.92 96.8555C708.383 97.0247 706.6 97.1094 704.568 97.1094H691.639V96.3672H704.568ZM706.131 91.875C708.058 91.875 709.686 91.7057 711.014 91.3672C712.342 91.0286 713.416 90.5078 714.236 89.8047C715.057 89.1016 715.649 88.2031 716.014 87.1094C716.378 86.0156 716.561 84.707 716.561 83.1836V82.4609C716.561 80.9766 716.372 79.694 715.994 78.6133C715.63 77.5326 715.031 76.6341 714.197 75.918C713.364 75.2018 712.27 74.6745 710.916 74.3359C709.575 73.9844 707.921 73.8086 705.955 73.8086H700.076V91.875H706.131ZM701.443 75.1758H705.584C706.886 75.1758 707.986 75.2279 708.885 75.332C709.783 75.4232 710.545 75.5729 711.17 75.7812C711.808 75.9766 712.355 76.237 712.811 76.5625C713.279 76.888 713.735 77.2786 714.178 77.7344C713.696 77.4349 713.188 77.1745 712.654 76.9531C712.133 76.7188 711.541 76.5299 710.877 76.3867C710.213 76.2305 709.451 76.1133 708.592 76.0352C707.732 75.957 706.73 75.918 705.584 75.918H702.225V90.7031H701.443V75.1758ZM691.561 75.1758H694.861V75.918H691.561V75.1758Z" fill="black"/>
</svg>
