<svg width="342" height="23" viewBox="0 0 342 23" fill="none" xmlns="http://www.w3.org/2000/svg">
<rect x="0.5" y="0.5" width="341" height="22" fill="#F66248" stroke="#768E3A"/>
<rect x="175.09" y="0.178711" width="7.89102" height="22.8211" fill="#FFE175" fill-opacity="0.4"/>
<rect x="185.957" y="0.170898" width="7.89102" height="22.8211" fill="#FFE175" fill-opacity="0.4"/>
<rect x="204.645" y="0.170898" width="7.89102" height="22.8211" fill="#FFE175" fill-opacity="0.4"/>
<rect x="215.512" y="0.163086" width="7.89102" height="22.8211" fill="#FFE175" fill-opacity="0.4"/>
<rect x="234.207" y="0.163086" width="7.89102" height="22.8211" fill="#FFE175" fill-opacity="0.4"/>
<rect x="245.074" y="0.155273" width="7.89102" height="22.8211" fill="#FFE175" fill-opacity="0.4"/>
<rect x="263.773" y="0.163086" width="7.89102" height="22.8211" fill="#FFE175" fill-opacity="0.4"/>
<rect x="274.641" y="0.155273" width="7.89102" height="22.8211" fill="#FFE175" fill-opacity="0.4"/>
<rect x="293.328" y="0.163086" width="7.89102" height="22.8211" fill="#FFE175" fill-opacity="0.4"/>
<rect x="304.191" y="0.155273" width="7.89102" height="22.8211" fill="#FFE175" fill-opacity="0.4"/>
<rect x="322.891" y="0.163086" width="7.89102" height="22.8211" fill="#FFE175" fill-opacity="0.4"/>
<rect x="333.758" y="0.155273" width="7.89102" height="22.8211" fill="#FFE175" fill-opacity="0.4"/>
<rect x="0.296875" y="0.0947266" width="7.89102" height="22.8211" fill="#FFE175" fill-opacity="0.4"/>
<rect x="11.1641" y="0.0869141" width="7.89102" height="22.8211" fill="#FFE175" fill-opacity="0.4"/>
<rect x="29.8594" y="0.0869141" width="7.89102" height="22.8211" fill="#FFE175" fill-opacity="0.4"/>
<rect x="40.7266" y="0.0791016" width="7.89102" height="22.8211" fill="#FFE175" fill-opacity="0.4"/>
<rect x="59.4258" y="0.0791016" width="7.89102" height="22.8211" fill="#FFE175" fill-opacity="0.4"/>
<rect x="70.2891" y="0.0712891" width="7.89102" height="22.8211" fill="#FFE175" fill-opacity="0.4"/>
<rect x="88.9844" y="0.0791016" width="7.89102" height="22.8211" fill="#FFE175" fill-opacity="0.4"/>
<rect x="99.8477" y="0.0712891" width="7.89102" height="22.8211" fill="#FFE175" fill-opacity="0.4"/>
<rect x="118.539" y="0.0791016" width="7.89102" height="22.8211" fill="#FFE175" fill-opacity="0.4"/>
<rect x="129.402" y="0.0712891" width="7.89102" height="22.8211" fill="#FFE175" fill-opacity="0.4"/>
<rect x="148.109" y="0.0791016" width="7.89102" height="22.8211" fill="#FFE175" fill-opacity="0.4"/>
<rect x="158.977" y="0.0712891" width="7.89102" height="22.8211" fill="#FFE175" fill-opacity="0.4"/>
</svg>
