<svg width="341" height="25" viewBox="0 0 341 25" fill="none" xmlns="http://www.w3.org/2000/svg">
<rect x="0.5" y="0.5" width="340" height="24" fill="#768E3A" stroke="#768E3A"/>
<rect x="174.07" y="1.10791" width="7.81373" height="22.8919" fill="#FFE175" fill-opacity="0.4"/>
<rect x="184.828" y="1.1001" width="7.81373" height="22.8919" fill="#FFE175" fill-opacity="0.4"/>
<rect x="203.34" y="1.10034" width="7.81373" height="22.8919" fill="#FFE175" fill-opacity="0.4"/>
<rect x="214.098" y="1.09253" width="7.81373" height="22.8919" fill="#FFE175" fill-opacity="0.4"/>
<rect x="232.613" y="1.09253" width="7.81373" height="22.8919" fill="#FFE175" fill-opacity="0.4"/>
<rect x="243.367" y="1.08447" width="7.81373" height="22.8919" fill="#FFE175" fill-opacity="0.4"/>
<rect x="261.883" y="1.09253" width="7.81373" height="22.8919" fill="#FFE175" fill-opacity="0.4"/>
<rect x="272.641" y="1.08447" width="7.81373" height="22.8919" fill="#FFE175" fill-opacity="0.4"/>
<rect x="291.156" y="1.09253" width="7.81373" height="22.8919" fill="#FFE175" fill-opacity="0.4"/>
<rect x="301.914" y="1.08447" width="7.81373" height="22.8919" fill="#FFE175" fill-opacity="0.4"/>
<rect x="320.43" y="1.09253" width="7.81373" height="22.8919" fill="#FFE175" fill-opacity="0.4"/>
<rect x="331.188" y="1.08447" width="7.81373" height="22.8919" fill="#FFE175" fill-opacity="0.4"/>
<rect x="1" y="1.02344" width="7.81373" height="22.8919" fill="#FFE175" fill-opacity="0.4"/>
<rect x="11.7578" y="1.01562" width="7.81373" height="22.8919" fill="#FFE175" fill-opacity="0.4"/>
<rect x="30.2734" y="1.01562" width="7.81373" height="22.8919" fill="#FFE175" fill-opacity="0.4"/>
<rect x="41.0312" y="1.00781" width="7.81373" height="22.8919" fill="#FFE175" fill-opacity="0.4"/>
<rect x="59.5469" y="1.00806" width="7.81373" height="22.8919" fill="#FFE175" fill-opacity="0.4"/>
<rect x="70.3047" y="1" width="7.81373" height="22.8919" fill="#FFE175" fill-opacity="0.4"/>
<rect x="88.8125" y="1.00806" width="7.81373" height="22.8919" fill="#FFE175" fill-opacity="0.4"/>
<rect x="99.5703" y="1" width="7.81373" height="22.8919" fill="#FFE175" fill-opacity="0.4"/>
<rect x="118.082" y="1.00806" width="7.81373" height="22.8919" fill="#FFE175" fill-opacity="0.4"/>
<rect x="128.84" y="1" width="7.81373" height="22.8919" fill="#FFE175" fill-opacity="0.4"/>
<rect x="147.359" y="1.00806" width="7.81373" height="22.8919" fill="#FFE175" fill-opacity="0.4"/>
<rect x="158.117" y="1" width="7.81373" height="22.8919" fill="#FFE175" fill-opacity="0.4"/>
</svg>
