<svg width="78" height="78" viewBox="0 0 78 78" fill="none" xmlns="http://www.w3.org/2000/svg">
<circle cx="26.5177" cy="64.7394" r="13.2599" fill="#F66248"/>
<circle cx="51.4787" cy="64.7394" r="13.2599" fill="#F66248"/>
<circle cx="64.7404" cy="45.2394" r="13.2599" fill="#F66248"/>
<circle cx="60.0607" cy="22.6198" r="13.2599" fill="#F66248"/>
<circle cx="39.7794" cy="13.2599" r="13.2599" fill="#F66248"/>
<circle cx="21.0607" cy="22.6198" r="13.2599" fill="#F66248"/>
<circle cx="13.2599" cy="45.2394" r="13.2599" fill="#F66248"/>
<circle cx="39.0687" cy="40.7416" r="21.057" fill="#FFE175"/>
<path d="M17.9995 40.5002C17.9995 28.6119 27.6114 19 39.4998 19C51.3881 19 61 28.6119 61 40.5002C61 52.3886 51.3881 62.0005 39.4998 62.0005C27.6114 62.0005 17.9995 52.3886 17.9995 40.5002ZM58.4706 40.5002C58.4706 30.0031 49.9969 21.5294 39.4998 21.5294C29.0026 21.5294 20.529 30.0031 20.529 40.5002C20.529 50.9974 29.0026 59.471 39.4998 59.471C49.9969 59.471 58.4706 50.9974 58.4706 40.5002Z" fill="black"/>
<path d="M37.3522 50.9974L47.8494 40.5002L37.3522 30.003L39.1228 28.2324L51.3906 40.5002L39.1228 52.768L37.3522 50.9974Z" fill="black"/>
<path d="M49.6172 39.2349V41.7643H28.117V39.2349H49.6172Z" fill="black"/>
</svg>
