<svg width="1439" height="408" viewBox="0 0 1439 408" fill="none" xmlns="http://www.w3.org/2000/svg">
<path d="M59.0428 7.09355C83.5381 17.8049 117.835 11.5566 131.922 7.09355C146.744 2.27993 183.825 -4.45913 213.573 7.09355C243.32 18.6462 277.974 11.9072 291.583 7.09355C307.619 1.74059 347.127 -5.75355 376.875 7.09355C406.622 19.9407 439.327 12.4465 451.961 7.09355C461.652 3.16986 487.898 -2.32331 515.351 7.09355C542.803 16.5104 567.136 11.0172 575.872 7.09355C588.984 2.63052 621.773 -3.61773 648.033 7.09355C674.294 17.8048 708.076 11.5566 721.685 7.09355C732.13 1.91589 759.73 -5.33284 786.564 7.09355C813.399 19.5199 850.23 12.2712 865.291 7.09355C875.02 2.63052 902.2 -3.61773 933.095 7.09355C963.99 17.8048 997.496 11.5566 1010.39 7.09355C1019.64 2.45523 1045.56 -4.03842 1075.27 7.09355C1104.97 18.2255 1136.23 11.7319 1148.15 7.09355C1160.28 2.45523 1191.71 -4.03842 1220.31 7.09355C1248.91 18.2255 1285.19 11.7319 1299.75 7.09355C1312.15 2.8058 1342.33 -3.19704 1363.91 7.09355C1385.5 17.3841 1422.96 11.3813 1439 7.09355V408H-0.761034L-0.761132 6.23905C10.9049 1.91471 36.0808 -2.9473 59.0428 7.09355Z" fill="#768E3A"/>
</svg>
