<svg width="910" height="589" viewBox="0 0 910 589" fill="none" xmlns="http://www.w3.org/2000/svg">
<rect width="910" height="588.907" fill="#F66248"/>
<rect x="465.898" y="4.57336" width="20.9059" height="583.425" fill="#FFE175" fill-opacity="0.4"/>
<rect x="494.684" y="4.37317" width="20.9059" height="583.425" fill="#FFE175" fill-opacity="0.4"/>
<rect x="544.207" y="4.37427" width="20.9059" height="583.425" fill="#FFE175" fill-opacity="0.4"/>
<rect x="572.992" y="4.17371" width="20.9059" height="583.425" fill="#FFE175" fill-opacity="0.4"/>
<rect x="622.523" y="4.17358" width="20.9059" height="583.425" fill="#FFE175" fill-opacity="0.4"/>
<rect x="651.309" y="3.97266" width="20.9059" height="583.425" fill="#FFE175" fill-opacity="0.4"/>
<rect x="700.84" y="4.1731" width="20.9059" height="583.425" fill="#FFE175" fill-opacity="0.4"/>
<rect x="729.625" y="3.97266" width="20.9059" height="583.425" fill="#FFE175" fill-opacity="0.4"/>
<rect x="779.156" y="4.17358" width="20.9059" height="583.425" fill="#FFE175" fill-opacity="0.4"/>
<rect x="807.941" y="3.97266" width="20.9059" height="583.425" fill="#FFE175" fill-opacity="0.4"/>
<rect x="857.477" y="4.17358" width="20.9059" height="583.425" fill="#FFE175" fill-opacity="0.4"/>
<rect x="886.262" y="3.97266" width="20.9059" height="583.425" fill="#FFE175" fill-opacity="0.4"/>
<rect x="2.83594" y="2.41846" width="20.9059" height="583.425" fill="#FFE175" fill-opacity="0.4"/>
<rect x="31.6211" y="2.21838" width="20.9059" height="583.425" fill="#FFE175" fill-opacity="0.4"/>
<rect x="81.1523" y="2.21936" width="20.9059" height="583.425" fill="#FFE175" fill-opacity="0.4"/>
<rect x="109.938" y="2.01868" width="20.9059" height="583.425" fill="#FFE175" fill-opacity="0.4"/>
<rect x="159.477" y="2.01843" width="20.9059" height="583.425" fill="#FFE175" fill-opacity="0.4"/>
<rect x="188.262" y="1.81763" width="20.9059" height="583.425" fill="#FFE175" fill-opacity="0.4"/>
<rect x="237.781" y="2.0177" width="20.9059" height="583.425" fill="#FFE175" fill-opacity="0.4"/>
<rect x="266.566" y="1.81763" width="20.9059" height="583.425" fill="#FFE175" fill-opacity="0.4"/>
<rect x="316.094" y="2.01843" width="20.9059" height="583.425" fill="#FFE175" fill-opacity="0.4"/>
<rect x="344.879" y="1.81763" width="20.9059" height="583.425" fill="#FFE175" fill-opacity="0.4"/>
<rect x="394.422" y="2.01843" width="20.9059" height="583.425" fill="#FFE175" fill-opacity="0.4"/>
<rect x="423.207" y="1.81763" width="20.9059" height="583.425" fill="#FFE175" fill-opacity="0.4"/>
</svg>
