<svg width="1439" height="364" viewBox="0 0 1439 364" fill="none" xmlns="http://www.w3.org/2000/svg">
<path d="M59.0428 6.32856C83.5381 15.8848 117.835 10.3103 131.922 6.32856C146.744 2.03406 183.825 -3.97825 213.573 6.32856C243.32 16.6354 277.974 10.6231 291.583 6.32856C307.619 1.55288 347.127 -5.13307 376.875 6.32856C406.622 17.7902 439.327 11.1042 451.961 6.32856C461.652 2.82801 487.898 -2.07276 515.351 6.32856C542.803 14.7299 567.136 9.82911 575.872 6.32856C588.984 2.34683 621.773 -3.22758 648.033 6.32856C674.294 15.8847 708.076 10.3103 721.685 6.32856C732.13 1.70927 759.73 -4.75773 786.564 6.32856C813.399 17.4148 850.23 10.9478 865.291 6.32856C875.02 2.34683 902.2 -3.22758 933.095 6.32856C963.99 15.8847 997.496 10.3103 1010.39 6.32856C1019.64 2.19045 1045.56 -3.6029 1075.27 6.32856C1104.97 16.26 1136.23 10.4667 1148.15 6.32856C1160.28 2.19045 1191.71 -3.6029 1220.31 6.32856C1248.91 16.26 1285.19 10.4667 1299.75 6.32856C1312.15 2.50322 1342.33 -2.85226 1363.91 6.32856C1385.5 15.5094 1422.96 10.1539 1439 6.32856V364H-0.761034L-0.761132 5.56622C10.9049 1.70822 36.0808 -2.62945 59.0428 6.32856Z" fill="#AEC472"/>
</svg>
