<svg width="910" height="648" viewBox="0 0 910 648" fill="none" xmlns="http://www.w3.org/2000/svg">
<rect x="1.5" y="1.5" width="907" height="645" fill="#F66248" stroke="#768E3A" stroke-width="3"/>
<rect x="465.898" y="5.03223" width="20.9059" height="641.968" fill="#FFE175" fill-opacity="0.4"/>
<rect x="494.684" y="4.81201" width="20.9059" height="641.968" fill="#FFE175" fill-opacity="0.4"/>
<rect x="544.207" y="4.81323" width="20.9059" height="641.968" fill="#FFE175" fill-opacity="0.4"/>
<rect x="572.992" y="4.59253" width="20.9059" height="641.968" fill="#FFE175" fill-opacity="0.4"/>
<rect x="622.523" y="4.59229" width="20.9059" height="641.968" fill="#FFE175" fill-opacity="0.4"/>
<rect x="651.309" y="4.37134" width="20.9059" height="641.968" fill="#FFE175" fill-opacity="0.4"/>
<rect x="700.84" y="4.5918" width="20.9059" height="641.968" fill="#FFE175" fill-opacity="0.4"/>
<rect x="729.625" y="4.37134" width="20.9059" height="641.968" fill="#FFE175" fill-opacity="0.4"/>
<rect x="779.156" y="4.59229" width="20.9059" height="641.968" fill="#FFE175" fill-opacity="0.4"/>
<rect x="807.941" y="4.37134" width="20.9059" height="641.968" fill="#FFE175" fill-opacity="0.4"/>
<rect x="857.477" y="4.59229" width="20.9059" height="641.968" fill="#FFE175" fill-opacity="0.4"/>
<rect x="886.262" y="4.37134" width="20.9059" height="641.968" fill="#FFE175" fill-opacity="0.4"/>
<rect x="2.83594" y="2.66113" width="20.9059" height="641.968" fill="#FFE175" fill-opacity="0.4"/>
<rect x="31.6211" y="2.44092" width="20.9059" height="641.968" fill="#FFE175" fill-opacity="0.4"/>
<rect x="81.1523" y="2.44214" width="20.9059" height="641.968" fill="#FFE175" fill-opacity="0.4"/>
<rect x="109.938" y="2.22119" width="20.9059" height="641.968" fill="#FFE175" fill-opacity="0.4"/>
<rect x="159.477" y="2.22095" width="20.9059" height="641.968" fill="#FFE175" fill-opacity="0.4"/>
<rect x="188.262" y="2" width="20.9059" height="641.968" fill="#FFE175" fill-opacity="0.4"/>
<rect x="237.781" y="2.22021" width="20.9059" height="641.968" fill="#FFE175" fill-opacity="0.4"/>
<rect x="266.566" y="2" width="20.9059" height="641.968" fill="#FFE175" fill-opacity="0.4"/>
<rect x="316.094" y="2.22095" width="20.9059" height="641.968" fill="#FFE175" fill-opacity="0.4"/>
<rect x="344.879" y="2" width="20.9059" height="641.968" fill="#FFE175" fill-opacity="0.4"/>
<rect x="394.422" y="2.22095" width="20.9059" height="641.968" fill="#FFE175" fill-opacity="0.4"/>
<rect x="423.207" y="2" width="20.9059" height="641.968" fill="#FFE175" fill-opacity="0.4"/>
</svg>
