<svg width="910" height="647" viewBox="0 0 910 647" fill="none" xmlns="http://www.w3.org/2000/svg">
<rect x="1.5" y="1.5" width="908" height="644" fill="#768E3A" stroke="#AEC472" stroke-width="3"/>
<rect x="466.406" y="5.03223" width="20.9288" height="641.968" fill="#FFE175" fill-opacity="0.4"/>
<rect x="495.219" y="4.81226" width="20.9288" height="641.968" fill="#FFE175" fill-opacity="0.4"/>
<rect x="544.805" y="4.81348" width="20.9288" height="641.968" fill="#FFE175" fill-opacity="0.4"/>
<rect x="573.621" y="4.59229" width="20.9288" height="641.968" fill="#FFE175" fill-opacity="0.4"/>
<rect x="623.207" y="4.59229" width="20.9288" height="641.968" fill="#FFE175" fill-opacity="0.4"/>
<rect x="652.02" y="4.37134" width="20.9288" height="641.968" fill="#FFE175" fill-opacity="0.4"/>
<rect x="701.605" y="4.5918" width="20.9288" height="641.968" fill="#FFE175" fill-opacity="0.4"/>
<rect x="730.422" y="4.37134" width="20.9288" height="641.968" fill="#FFE175" fill-opacity="0.4"/>
<rect x="780.012" y="4.59229" width="20.9288" height="641.968" fill="#FFE175" fill-opacity="0.4"/>
<rect x="808.828" y="4.37134" width="20.9288" height="641.968" fill="#FFE175" fill-opacity="0.4"/>
<rect x="858.418" y="4.59229" width="20.9288" height="641.968" fill="#FFE175" fill-opacity="0.4"/>
<rect x="887.23" y="4.37134" width="20.9288" height="641.968" fill="#FFE175" fill-opacity="0.4"/>
<rect x="2.84375" y="2.66113" width="20.9288" height="641.968" fill="#FFE175" fill-opacity="0.4"/>
<rect x="31.6562" y="2.44092" width="20.9288" height="641.968" fill="#FFE175" fill-opacity="0.4"/>
<rect x="81.2422" y="2.44189" width="20.9288" height="641.968" fill="#FFE175" fill-opacity="0.4"/>
<rect x="110.059" y="2.22119" width="20.9288" height="641.968" fill="#FFE175" fill-opacity="0.4"/>
<rect x="159.652" y="2.22119" width="20.9288" height="641.968" fill="#FFE175" fill-opacity="0.4"/>
<rect x="188.465" y="2" width="20.9288" height="641.968" fill="#FFE175" fill-opacity="0.4"/>
<rect x="238.047" y="2.22021" width="20.9288" height="641.968" fill="#FFE175" fill-opacity="0.4"/>
<rect x="266.859" y="2" width="20.9288" height="641.968" fill="#FFE175" fill-opacity="0.4"/>
<rect x="316.449" y="2.22119" width="20.9288" height="641.968" fill="#FFE175" fill-opacity="0.4"/>
<rect x="345.266" y="2" width="20.9288" height="641.968" fill="#FFE175" fill-opacity="0.4"/>
<rect x="394.859" y="2.22119" width="20.9288" height="641.968" fill="#FFE175" fill-opacity="0.4"/>
<rect x="423.672" y="2" width="20.9288" height="641.968" fill="#FFE175" fill-opacity="0.4"/>
<path d="M668.02 161.263C783.219 245.677 949.171 356.813 694.569 460.927C506.206 537.955 343.752 551.909 241.65 481.74C158.34 424.486 18.5691 237.42 210.96 160.895C432.937 72.6028 576.013 93.8443 668.02 161.263Z" fill="#FEFEF2" stroke="#768E3A" stroke-width="3"/>
</svg>
