<svg width="904" height="587" viewBox="0 0 904 587" fill="none" xmlns="http://www.w3.org/2000/svg">
<rect x="1.5" y="1.5" width="901" height="584" fill="#768E3A" stroke="#AEC472" stroke-width="3"/>
<rect x="462.822" y="4.56555" width="20.768" height="582.434" fill="#FFE175" fill-opacity="0.4"/>
<rect x="491.414" y="4.36597" width="20.768" height="582.434" fill="#FFE175" fill-opacity="0.4"/>
<rect x="540.619" y="4.36707" width="20.768" height="582.434" fill="#FFE175" fill-opacity="0.4"/>
<rect x="569.213" y="4.16638" width="20.768" height="582.434" fill="#FFE175" fill-opacity="0.4"/>
<rect x="618.418" y="4.16638" width="20.768" height="582.434" fill="#FFE175" fill-opacity="0.4"/>
<rect x="647.01" y="3.96594" width="20.768" height="582.434" fill="#FFE175" fill-opacity="0.4"/>
<rect x="696.215" y="4.16602" width="20.768" height="582.434" fill="#FFE175" fill-opacity="0.4"/>
<rect x="724.809" y="3.96594" width="20.768" height="582.434" fill="#FFE175" fill-opacity="0.4"/>
<rect x="774.018" y="4.16638" width="20.768" height="582.434" fill="#FFE175" fill-opacity="0.4"/>
<rect x="802.613" y="3.96594" width="20.768" height="582.434" fill="#FFE175" fill-opacity="0.4"/>
<rect x="851.822" y="4.16638" width="20.768" height="582.434" fill="#FFE175" fill-opacity="0.4"/>
<rect x="880.414" y="3.96594" width="20.768" height="582.434" fill="#FFE175" fill-opacity="0.4"/>
<rect x="2.82227" y="2.41431" width="20.768" height="582.434" fill="#FFE175" fill-opacity="0.4"/>
<rect x="31.4121" y="2.2146" width="20.768" height="582.434" fill="#FFE175" fill-opacity="0.4"/>
<rect x="80.6172" y="2.21545" width="20.768" height="582.434" fill="#FFE175" fill-opacity="0.4"/>
<rect x="109.213" y="2.01526" width="20.768" height="582.434" fill="#FFE175" fill-opacity="0.4"/>
<rect x="158.426" y="2.01526" width="20.768" height="582.434" fill="#FFE175" fill-opacity="0.4"/>
<rect x="187.018" y="1.81458" width="20.768" height="582.434" fill="#FFE175" fill-opacity="0.4"/>
<rect x="236.217" y="2.01428" width="20.768" height="582.434" fill="#FFE175" fill-opacity="0.4"/>
<rect x="264.809" y="1.81458" width="20.768" height="582.434" fill="#FFE175" fill-opacity="0.4"/>
<rect x="314.018" y="2.01526" width="20.768" height="582.434" fill="#FFE175" fill-opacity="0.4"/>
<rect x="342.613" y="1.81458" width="20.768" height="582.434" fill="#FFE175" fill-opacity="0.4"/>
<rect x="391.826" y="2.01526" width="20.768" height="582.434" fill="#FFE175" fill-opacity="0.4"/>
<rect x="420.416" y="1.81458" width="20.768" height="582.434" fill="#FFE175" fill-opacity="0.4"/>
</svg>
