<svg width="12" height="12" viewBox="0 0 12 12" fill="none" xmlns="http://www.w3.org/2000/svg">
<path d="M2 3C2 2.86739 2.05268 2.74021 2.14645 2.64645C2.24021 2.55268 2.36739 2.5 2.5 2.5H9.5C9.63261 2.5 9.75979 2.55268 9.85355 2.64645C9.94732 2.74021 10 2.86739 10 3C10 3.13261 9.94732 3.25979 9.85355 3.35355C9.75979 3.44732 9.63261 3.5 9.5 3.5H2.5C2.36739 3.5 2.24021 3.44732 2.14645 3.35355C2.05268 3.25979 2 3.13261 2 3ZM2 6C2 5.86739 2.05268 5.74021 2.14645 5.64645C2.24021 5.55268 2.36739 5.5 2.5 5.5H9.5C9.63261 5.5 9.75979 5.55268 9.85355 5.64645C9.94732 5.74021 10 5.86739 10 6C10 6.13261 9.94732 6.25979 9.85355 6.35355C9.75979 6.44732 9.63261 6.5 9.5 6.5H2.5C2.36739 6.5 2.24021 6.44732 2.14645 6.35355C2.05268 6.25979 2 6.13261 2 6ZM2.5 8.5C2.36739 8.5 2.24021 8.55268 2.14645 8.64645C2.05268 8.74021 2 8.86739 2 9C2 9.13261 2.05268 9.25979 2.14645 9.35355C2.24021 9.44732 2.36739 9.5 2.5 9.5H9.5C9.63261 9.5 9.75979 9.44732 9.85355 9.35355C9.94732 9.25979 10 9.13261 10 9C10 8.86739 9.94732 8.74021 9.85355 8.64645C9.75979 8.55268 9.63261 8.5 9.5 8.5H2.5Z" fill="black"/>
</svg>
