<svg width="2364" height="122" viewBox="0 0 2364 122" fill="none" xmlns="http://www.w3.org/2000/svg">
<path d="M978 11.5L1385 120M978 62.5H1385M978 120.5L1385 10.5" stroke="#F66248" stroke-width="2"/>
<path d="M1385 11H2363.5M1385 62H2363.5M1385 120H2363.5M0 11.5H978.5M0 62H978.5M0 120H978.5" stroke="#F66248" stroke-width="2"/>
<circle cx="1160.8" cy="99.6" r="20.4" fill="#F66248"/>
<circle cx="1199.2" cy="99.6" r="20.4" fill="#F66248"/>
<circle cx="1219.6" cy="69.6" r="20.4" fill="#F66248"/>
<circle cx="1212.4" cy="34.7999" r="20.4" fill="#F66248"/>
<circle cx="1181.2" cy="20.4" r="20.4" fill="#F66248"/>
<circle cx="1152.4" cy="34.7999" r="20.4" fill="#F66248"/>
<circle cx="1140.4" cy="69.6001" r="20.4" fill="#F66248"/>
<circle cx="1180.11" cy="62.6796" r="32.3956" fill="#FFE175"/>
<path d="M1152.2 71.6562H1156.17V58.1064H1152.2V55.7627H1163.15C1164.45 55.7627 1165.6 55.7969 1166.58 55.8652C1167.57 55.9238 1168.46 56.0605 1169.26 56.2754C1171.36 56.8516 1172.93 57.8428 1173.98 59.249C1175.02 60.6553 1175.55 62.5303 1175.55 64.874C1175.55 65.9482 1175.42 66.9443 1175.17 67.8623C1174.92 68.7705 1174.54 69.5908 1174.02 70.3232C1173.52 71.0459 1172.87 71.666 1172.09 72.1836C1171.32 72.7012 1170.41 73.1016 1169.35 73.3848C1168.56 73.5996 1167.66 73.7559 1166.66 73.8535C1165.66 73.9512 1164.54 74 1163.3 74H1152.2V71.6562ZM1162.83 75.0254C1163.52 75.0254 1164.19 75.0059 1164.85 74.9668C1165.52 74.9375 1166.15 74.8936 1166.74 74.835C1167.34 74.7764 1167.89 74.7031 1168.38 74.6152C1168.89 74.5371 1169.33 74.4492 1169.7 74.3516C1170.76 74.0781 1171.71 73.6631 1172.56 73.1064C1173.42 72.54 1174.15 71.8564 1174.74 71.0557C1175.34 70.2451 1175.8 69.3223 1176.12 68.2871C1176.44 67.2422 1176.6 66.1045 1176.6 64.874C1176.6 63.9658 1176.52 63.1455 1176.35 62.4131C1176.19 61.6709 1175.94 60.9971 1175.62 60.3916C1175.3 59.7764 1174.9 59.2148 1174.42 58.707C1173.95 58.1992 1173.41 57.7207 1172.79 57.2715C1173.51 57.6328 1174.14 58.0527 1174.68 58.5312C1175.23 59.0098 1175.69 59.5615 1176.06 60.1865C1176.43 60.8115 1176.71 61.5146 1176.91 62.2959C1177.1 63.0674 1177.2 63.9268 1177.2 64.874C1177.2 66.1338 1177.04 67.3105 1176.7 68.4043C1176.38 69.4883 1175.91 70.4648 1175.28 71.334C1174.66 72.1934 1173.89 72.9258 1172.97 73.5312C1172.05 74.1367 1171 74.5908 1169.82 74.8936C1168.99 75.0986 1168 75.2646 1166.85 75.3916C1165.69 75.5186 1164.36 75.582 1162.83 75.582H1153.13V75.0254H1162.83ZM1164 71.6562C1165.45 71.6562 1166.67 71.5293 1167.67 71.2754C1168.66 71.0215 1169.47 70.6309 1170.08 70.1035C1170.7 69.5762 1171.14 68.9023 1171.42 68.082C1171.69 67.2617 1171.83 66.2803 1171.83 65.1377V64.5957C1171.83 63.4824 1171.68 62.5205 1171.4 61.71C1171.13 60.8994 1170.68 60.2256 1170.05 59.6885C1169.43 59.1514 1168.61 58.7559 1167.59 58.502C1166.59 58.2383 1165.35 58.1064 1163.87 58.1064H1159.46V71.6562H1164ZM1160.49 59.1318H1163.59C1164.57 59.1318 1165.4 59.1709 1166.07 59.249C1166.74 59.3174 1167.31 59.4297 1167.78 59.5859C1168.26 59.7324 1168.67 59.9277 1169.01 60.1719C1169.37 60.416 1169.71 60.709 1170.04 61.0508C1169.68 60.8262 1169.3 60.6309 1168.9 60.4648C1168.51 60.2891 1168.06 60.1475 1167.56 60.04C1167.07 59.9229 1166.49 59.835 1165.85 59.7764C1165.21 59.7178 1164.45 59.6885 1163.59 59.6885H1161.07V70.7773H1160.49V59.1318ZM1153.08 59.1318H1155.55V59.6885H1153.08V59.1318ZM1181 71.6562H1184.97V58.1064H1181V55.7627H1191.95C1193.25 55.7627 1194.39 55.7969 1195.38 55.8652C1196.37 55.9238 1197.26 56.0605 1198.06 56.2754C1200.16 56.8516 1201.73 57.8428 1202.78 59.249C1203.82 60.6553 1204.35 62.5303 1204.35 64.874C1204.35 65.9482 1204.22 66.9443 1203.96 67.8623C1203.72 68.7705 1203.34 69.5908 1202.82 70.3232C1202.31 71.0459 1201.67 71.666 1200.89 72.1836C1200.12 72.7012 1199.2 73.1016 1198.15 73.3848C1197.36 73.5996 1196.46 73.7559 1195.45 73.8535C1194.46 73.9512 1193.34 74 1192.1 74H1181V71.6562ZM1191.63 75.0254C1192.31 75.0254 1192.99 75.0059 1193.65 74.9668C1194.32 74.9375 1194.95 74.8936 1195.54 74.835C1196.14 74.7764 1196.68 74.7031 1197.18 74.6152C1197.69 74.5371 1198.13 74.4492 1198.5 74.3516C1199.56 74.0781 1200.51 73.6631 1201.36 73.1064C1202.22 72.54 1202.94 71.8564 1203.54 71.0557C1204.14 70.2451 1204.59 69.3223 1204.92 68.2871C1205.24 67.2422 1205.4 66.1045 1205.4 64.874C1205.4 63.9658 1205.32 63.1455 1205.15 62.4131C1204.99 61.6709 1204.74 60.9971 1204.42 60.3916C1204.1 59.7764 1203.7 59.2148 1203.22 58.707C1202.75 58.1992 1202.21 57.7207 1201.59 57.2715C1202.3 57.6328 1202.93 58.0527 1203.48 58.5312C1204.03 59.0098 1204.49 59.5615 1204.86 60.1865C1205.23 60.8115 1205.51 61.5146 1205.71 62.2959C1205.9 63.0674 1206 63.9268 1206 64.874C1206 66.1338 1205.83 67.3105 1205.5 68.4043C1205.18 69.4883 1204.71 70.4648 1204.08 71.334C1203.46 72.1934 1202.69 72.9258 1201.77 73.5312C1200.85 74.1367 1199.8 74.5908 1198.62 74.8936C1197.79 75.0986 1196.8 75.2646 1195.64 75.3916C1194.49 75.5186 1193.15 75.582 1191.63 75.582H1181.93V75.0254H1191.63ZM1192.8 71.6562C1194.25 71.6562 1195.47 71.5293 1196.46 71.2754C1197.46 71.0215 1198.27 70.6309 1198.88 70.1035C1199.5 69.5762 1199.94 68.9023 1200.21 68.082C1200.49 67.2617 1200.62 66.2803 1200.62 65.1377V64.5957C1200.62 63.4824 1200.48 62.5205 1200.2 61.71C1199.93 60.8994 1199.48 60.2256 1198.85 59.6885C1198.23 59.1514 1197.41 58.7559 1196.39 58.502C1195.39 58.2383 1194.15 58.1064 1192.67 58.1064H1188.26V71.6562H1192.8ZM1189.29 59.1318H1192.39C1193.37 59.1318 1194.19 59.1709 1194.87 59.249C1195.54 59.3174 1196.11 59.4297 1196.58 59.5859C1197.06 59.7324 1197.47 59.9277 1197.81 60.1719C1198.16 60.416 1198.51 60.709 1198.84 61.0508C1198.48 60.8262 1198.1 60.6309 1197.7 60.4648C1197.3 60.2891 1196.86 60.1475 1196.36 60.04C1195.86 59.9229 1195.29 59.835 1194.65 59.7764C1194 59.7178 1193.25 59.6885 1192.39 59.6885H1189.87V70.7773H1189.29V59.1318ZM1181.88 59.1318H1184.35V59.6885H1181.88V59.1318Z" fill="black"/>
</svg>
