<svg width="2311" height="122" viewBox="0 0 2311 122" fill="none" xmlns="http://www.w3.org/2000/svg">
<path d="M0.5 11.5H925L1332 120M0.5 62.5H925H1332M0.5 120.5H925L1332 10.5" stroke="#F66248" stroke-width="2"/>
<path d="M1332 11H2310.5M1332 62H2310.5M1332 120H2310.5" stroke="#F66248" stroke-width="2"/>
<circle cx="1107.8" cy="99.6" r="20.4" fill="#F66248"/>
<circle cx="1146.2" cy="99.6" r="20.4" fill="#F66248"/>
<circle cx="1166.6" cy="69.6" r="20.4" fill="#F66248"/>
<circle cx="1159.4" cy="34.7999" r="20.4" fill="#F66248"/>
<circle cx="1128.2" cy="20.4" r="20.4" fill="#F66248"/>
<circle cx="1099.4" cy="34.7999" r="20.4" fill="#F66248"/>
<circle cx="1087.4" cy="69.6001" r="20.4" fill="#F66248"/>
<circle cx="1127.11" cy="62.6796" r="32.3956" fill="#FFE175"/>
<path d="M1099.2 71.6562H1103.17V58.1064H1099.2V55.7627H1110.15C1111.45 55.7627 1112.6 55.7969 1113.58 55.8652C1114.57 55.9238 1115.46 56.0605 1116.26 56.2754C1118.36 56.8516 1119.93 57.8428 1120.98 59.249C1122.02 60.6553 1122.55 62.5303 1122.55 64.874C1122.55 65.9482 1122.42 66.9443 1122.17 67.8623C1121.92 68.7705 1121.54 69.5908 1121.02 70.3232C1120.52 71.0459 1119.87 71.666 1119.09 72.1836C1118.32 72.7012 1117.41 73.1016 1116.35 73.3848C1115.56 73.5996 1114.66 73.7559 1113.66 73.8535C1112.66 73.9512 1111.54 74 1110.3 74H1099.2V71.6562ZM1109.83 75.0254C1110.52 75.0254 1111.19 75.0059 1111.85 74.9668C1112.52 74.9375 1113.15 74.8936 1113.74 74.835C1114.34 74.7764 1114.89 74.7031 1115.38 74.6152C1115.89 74.5371 1116.33 74.4492 1116.7 74.3516C1117.76 74.0781 1118.71 73.6631 1119.56 73.1064C1120.42 72.54 1121.15 71.8564 1121.74 71.0557C1122.34 70.2451 1122.8 69.3223 1123.12 68.2871C1123.44 67.2422 1123.6 66.1045 1123.6 64.874C1123.6 63.9658 1123.52 63.1455 1123.35 62.4131C1123.19 61.6709 1122.94 60.9971 1122.62 60.3916C1122.3 59.7764 1121.9 59.2148 1121.42 58.707C1120.95 58.1992 1120.41 57.7207 1119.79 57.2715C1120.51 57.6328 1121.14 58.0527 1121.68 58.5312C1122.23 59.0098 1122.69 59.5615 1123.06 60.1865C1123.43 60.8115 1123.71 61.5146 1123.91 62.2959C1124.1 63.0674 1124.2 63.9268 1124.2 64.874C1124.2 66.1338 1124.04 67.3105 1123.7 68.4043C1123.38 69.4883 1122.91 70.4648 1122.28 71.334C1121.66 72.1934 1120.89 72.9258 1119.97 73.5312C1119.05 74.1367 1118 74.5908 1116.82 74.8936C1115.99 75.0986 1115 75.2646 1113.85 75.3916C1112.69 75.5186 1111.36 75.582 1109.83 75.582H1100.13V75.0254H1109.83ZM1111 71.6562C1112.45 71.6562 1113.67 71.5293 1114.67 71.2754C1115.66 71.0215 1116.47 70.6309 1117.08 70.1035C1117.7 69.5762 1118.14 68.9023 1118.42 68.082C1118.69 67.2617 1118.83 66.2803 1118.83 65.1377V64.5957C1118.83 63.4824 1118.68 62.5205 1118.4 61.71C1118.13 60.8994 1117.68 60.2256 1117.05 59.6885C1116.43 59.1514 1115.61 58.7559 1114.59 58.502C1113.59 58.2383 1112.35 58.1064 1110.87 58.1064H1106.46V71.6562H1111ZM1107.49 59.1318H1110.59C1111.57 59.1318 1112.4 59.1709 1113.07 59.249C1113.74 59.3174 1114.31 59.4297 1114.78 59.5859C1115.26 59.7324 1115.67 59.9277 1116.01 60.1719C1116.37 60.416 1116.71 60.709 1117.04 61.0508C1116.68 60.8262 1116.3 60.6309 1115.9 60.4648C1115.51 60.2891 1115.06 60.1475 1114.56 60.04C1114.07 59.9229 1113.49 59.835 1112.85 59.7764C1112.21 59.7178 1111.45 59.6885 1110.59 59.6885H1108.07V70.7773H1107.49V59.1318ZM1100.08 59.1318H1102.55V59.6885H1100.08V59.1318ZM1128 71.6562H1131.97V58.1064H1128V55.7627H1138.95C1140.25 55.7627 1141.39 55.7969 1142.38 55.8652C1143.37 55.9238 1144.26 56.0605 1145.06 56.2754C1147.16 56.8516 1148.73 57.8428 1149.78 59.249C1150.82 60.6553 1151.35 62.5303 1151.35 64.874C1151.35 65.9482 1151.22 66.9443 1150.96 67.8623C1150.72 68.7705 1150.34 69.5908 1149.82 70.3232C1149.31 71.0459 1148.67 71.666 1147.89 72.1836C1147.12 72.7012 1146.2 73.1016 1145.15 73.3848C1144.36 73.5996 1143.46 73.7559 1142.45 73.8535C1141.46 73.9512 1140.34 74 1139.1 74H1128V71.6562ZM1138.63 75.0254C1139.31 75.0254 1139.99 75.0059 1140.65 74.9668C1141.32 74.9375 1141.95 74.8936 1142.54 74.835C1143.14 74.7764 1143.68 74.7031 1144.18 74.6152C1144.69 74.5371 1145.13 74.4492 1145.5 74.3516C1146.56 74.0781 1147.51 73.6631 1148.36 73.1064C1149.22 72.54 1149.94 71.8564 1150.54 71.0557C1151.14 70.2451 1151.59 69.3223 1151.92 68.2871C1152.24 67.2422 1152.4 66.1045 1152.4 64.874C1152.4 63.9658 1152.32 63.1455 1152.15 62.4131C1151.99 61.6709 1151.74 60.9971 1151.42 60.3916C1151.1 59.7764 1150.7 59.2148 1150.22 58.707C1149.75 58.1992 1149.21 57.7207 1148.59 57.2715C1149.3 57.6328 1149.93 58.0527 1150.48 58.5312C1151.03 59.0098 1151.49 59.5615 1151.86 60.1865C1152.23 60.8115 1152.51 61.5146 1152.71 62.2959C1152.9 63.0674 1153 63.9268 1153 64.874C1153 66.1338 1152.83 67.3105 1152.5 68.4043C1152.18 69.4883 1151.71 70.4648 1151.08 71.334C1150.46 72.1934 1149.69 72.9258 1148.77 73.5312C1147.85 74.1367 1146.8 74.5908 1145.62 74.8936C1144.79 75.0986 1143.8 75.2646 1142.64 75.3916C1141.49 75.5186 1140.15 75.582 1138.63 75.582H1128.93V75.0254H1138.63ZM1139.8 71.6562C1141.25 71.6562 1142.47 71.5293 1143.46 71.2754C1144.46 71.0215 1145.27 70.6309 1145.88 70.1035C1146.5 69.5762 1146.94 68.9023 1147.21 68.082C1147.49 67.2617 1147.62 66.2803 1147.62 65.1377V64.5957C1147.62 63.4824 1147.48 62.5205 1147.2 61.71C1146.93 60.8994 1146.48 60.2256 1145.85 59.6885C1145.23 59.1514 1144.41 58.7559 1143.39 58.502C1142.39 58.2383 1141.15 58.1064 1139.67 58.1064H1135.26V71.6562H1139.8ZM1136.29 59.1318H1139.39C1140.37 59.1318 1141.19 59.1709 1141.87 59.249C1142.54 59.3174 1143.11 59.4297 1143.58 59.5859C1144.06 59.7324 1144.47 59.9277 1144.81 60.1719C1145.16 60.416 1145.51 60.709 1145.84 61.0508C1145.48 60.8262 1145.1 60.6309 1144.7 60.4648C1144.3 60.2891 1143.86 60.1475 1143.36 60.04C1142.86 59.9229 1142.29 59.835 1141.65 59.7764C1141 59.7178 1140.25 59.6885 1139.39 59.6885H1136.87V70.7773H1136.29V59.1318ZM1128.88 59.1318H1131.35V59.6885H1128.88V59.1318Z" fill="black"/>
</svg>
