<svg width="61" height="61" viewBox="0 0 61 61" fill="none" xmlns="http://www.w3.org/2000/svg">
<circle cx="20.7411" cy="50.6298" r="10.37" fill="#F66248"/>
<circle cx="40.2587" cy="50.6298" r="10.37" fill="#F66248"/>
<circle cx="50.6298" cy="35.3798" r="10.37" fill="#F66248"/>
<circle cx="46.9696" cy="17.6903" r="10.37" fill="#F66248"/>
<circle cx="31.1102" cy="10.37" r="10.37" fill="#F66248"/>
<circle cx="16.4696" cy="17.6903" r="10.37" fill="#F66248"/>
<circle cx="10.37" cy="35.3798" r="10.37" fill="#F66248"/>
<circle cx="30.5518" cy="31.8623" r="16.4678" fill="#FFE175"/>
<path d="M16.1719 35.75H18.2891V28.5234H16.1719V27.2734H22.0156C22.7083 27.2734 23.3177 27.2917 23.8438 27.3281C24.3698 27.3594 24.8464 27.4323 25.2734 27.5469C26.3932 27.8542 27.2318 28.3828 27.7891 29.1328C28.3464 29.8828 28.625 30.8828 28.625 32.1328C28.625 32.7057 28.5573 33.237 28.4219 33.7266C28.2917 34.2109 28.0885 34.6484 27.8125 35.0391C27.5417 35.4245 27.1979 35.7552 26.7812 36.0312C26.3698 36.3073 25.8828 36.5208 25.3203 36.6719C24.8984 36.7865 24.4193 36.8698 23.8828 36.9219C23.3516 36.974 22.7552 37 22.0938 37H16.1719V35.75ZM21.8438 37.5469C22.2083 37.5469 22.5677 37.5365 22.9219 37.5156C23.276 37.5 23.612 37.4766 23.9297 37.4453C24.2474 37.4141 24.5391 37.375 24.8047 37.3281C25.0755 37.2865 25.3099 37.2396 25.5078 37.1875C26.0703 37.0417 26.5781 36.8203 27.0312 36.5234C27.4896 36.2214 27.8776 35.8568 28.1953 35.4297C28.513 34.9974 28.7578 34.5052 28.9297 33.9531C29.1016 33.3958 29.1875 32.7891 29.1875 32.1328C29.1875 31.6484 29.1432 31.2109 29.0547 30.8203C28.9661 30.4245 28.8359 30.0651 28.6641 29.7422C28.4922 29.4141 28.2786 29.1146 28.0234 28.8438C27.7734 28.5729 27.4844 28.3177 27.1562 28.0781C27.5365 28.2708 27.8724 28.4948 28.1641 28.75C28.4557 29.0052 28.7005 29.2995 28.8984 29.6328C29.0964 29.9661 29.2474 30.3411 29.3516 30.7578C29.4557 31.1693 29.5078 31.6276 29.5078 32.1328C29.5078 32.8047 29.4193 33.4323 29.2422 34.0156C29.0703 34.5938 28.8177 35.1146 28.4844 35.5781C28.151 36.0365 27.7396 36.4271 27.25 36.75C26.7604 37.0729 26.2005 37.3151 25.5703 37.4766C25.1276 37.5859 24.599 37.6745 23.9844 37.7422C23.3698 37.8099 22.6562 37.8438 21.8438 37.8438H16.6719V37.5469H21.8438ZM22.4688 35.75C23.2396 35.75 23.8906 35.6823 24.4219 35.5469C24.9531 35.4115 25.3828 35.2031 25.7109 34.9219C26.0391 34.6406 26.276 34.2812 26.4219 33.8438C26.5677 33.4062 26.6406 32.8828 26.6406 32.2734V31.9844C26.6406 31.3906 26.5651 30.8776 26.4141 30.4453C26.2682 30.013 26.0286 29.6536 25.6953 29.3672C25.362 29.0807 24.9245 28.8698 24.3828 28.7344C23.8464 28.5938 23.1849 28.5234 22.3984 28.5234H20.0469V35.75H22.4688ZM20.5938 29.0703H22.25C22.7708 29.0703 23.2109 29.0911 23.5703 29.1328C23.9297 29.1693 24.2344 29.2292 24.4844 29.3125C24.7396 29.3906 24.9583 29.4948 25.1406 29.625C25.3281 29.7552 25.5104 29.9115 25.6875 30.0938C25.4948 29.974 25.2917 29.8698 25.0781 29.7812C24.8698 29.6875 24.6328 29.612 24.3672 29.5547C24.1016 29.4922 23.7969 29.4453 23.4531 29.4141C23.1094 29.3828 22.7083 29.3672 22.25 29.3672H20.9062V35.2812H20.5938V29.0703ZM16.6406 29.0703H17.9609V29.3672H16.6406V29.0703ZM31.5312 35.75H33.6484V28.5234H31.5312V27.2734H37.375C38.0677 27.2734 38.6771 27.2917 39.2031 27.3281C39.7292 27.3594 40.2057 27.4323 40.6328 27.5469C41.7526 27.8542 42.5911 28.3828 43.1484 29.1328C43.7057 29.8828 43.9844 30.8828 43.9844 32.1328C43.9844 32.7057 43.9167 33.237 43.7812 33.7266C43.651 34.2109 43.4479 34.6484 43.1719 35.0391C42.901 35.4245 42.5573 35.7552 42.1406 36.0312C41.7292 36.3073 41.2422 36.5208 40.6797 36.6719C40.2578 36.7865 39.7786 36.8698 39.2422 36.9219C38.7109 36.974 38.1146 37 37.4531 37H31.5312V35.75ZM37.2031 37.5469C37.5677 37.5469 37.9271 37.5365 38.2812 37.5156C38.6354 37.5 38.9714 37.4766 39.2891 37.4453C39.6068 37.4141 39.8984 37.375 40.1641 37.3281C40.4349 37.2865 40.6693 37.2396 40.8672 37.1875C41.4297 37.0417 41.9375 36.8203 42.3906 36.5234C42.849 36.2214 43.237 35.8568 43.5547 35.4297C43.8724 34.9974 44.1172 34.5052 44.2891 33.9531C44.4609 33.3958 44.5469 32.7891 44.5469 32.1328C44.5469 31.6484 44.5026 31.2109 44.4141 30.8203C44.3255 30.4245 44.1953 30.0651 44.0234 29.7422C43.8516 29.4141 43.638 29.1146 43.3828 28.8438C43.1328 28.5729 42.8438 28.3177 42.5156 28.0781C42.8958 28.2708 43.2318 28.4948 43.5234 28.75C43.8151 29.0052 44.0599 29.2995 44.2578 29.6328C44.4557 29.9661 44.6068 30.3411 44.7109 30.7578C44.8151 31.1693 44.8672 31.6276 44.8672 32.1328C44.8672 32.8047 44.7786 33.4323 44.6016 34.0156C44.4297 34.5938 44.1771 35.1146 43.8438 35.5781C43.5104 36.0365 43.099 36.4271 42.6094 36.75C42.1198 37.0729 41.5599 37.3151 40.9297 37.4766C40.487 37.5859 39.9583 37.6745 39.3438 37.7422C38.7292 37.8099 38.0156 37.8438 37.2031 37.8438H32.0312V37.5469H37.2031ZM37.8281 35.75C38.599 35.75 39.25 35.6823 39.7812 35.5469C40.3125 35.4115 40.7422 35.2031 41.0703 34.9219C41.3984 34.6406 41.6354 34.2812 41.7812 33.8438C41.9271 33.4062 42 32.8828 42 32.2734V31.9844C42 31.3906 41.9245 30.8776 41.7734 30.4453C41.6276 30.013 41.388 29.6536 41.0547 29.3672C40.7214 29.0807 40.2839 28.8698 39.7422 28.7344C39.2057 28.5938 38.5443 28.5234 37.7578 28.5234H35.4062V35.75H37.8281ZM35.9531 29.0703H37.6094C38.1302 29.0703 38.5703 29.0911 38.9297 29.1328C39.2891 29.1693 39.5938 29.2292 39.8438 29.3125C40.099 29.3906 40.3177 29.4948 40.5 29.625C40.6875 29.7552 40.8698 29.9115 41.0469 30.0938C40.8542 29.974 40.651 29.8698 40.4375 29.7812C40.2292 29.6875 39.9922 29.612 39.7266 29.5547C39.4609 29.4922 39.1562 29.4453 38.8125 29.4141C38.4688 29.3828 38.0677 29.3672 37.6094 29.3672H36.2656V35.2812H35.9531V29.0703ZM32 29.0703H33.3203V29.3672H32V29.0703Z" fill="black"/>
</svg>
