<svg width="400" height="397" viewBox="0 0 400 397" fill="none" xmlns="http://www.w3.org/2000/svg">
<path d="M16.6786 6.9023C23.4828 17.3249 33.0098 11.245 36.9227 6.9023C41.04 2.21846 51.3404 -4.33891 59.6036 6.9023C67.8667 18.1435 77.4928 11.5861 81.273 6.9023C85.7274 1.69366 96.7021 -5.59843 104.965 6.9023C113.228 19.403 122.313 12.1109 125.822 6.9023C128.514 3.0844 135.805 -2.26067 143.431 6.9023C151.056 16.0653 157.816 10.7202 160.242 6.9023C163.884 2.5596 172.992 -3.52019 180.287 6.9023C187.582 17.3248 196.966 11.245 200.746 6.9023C203.647 1.86423 211.314 -5.18906 218.768 6.9023C226.222 18.9937 236.453 11.9404 240.636 6.9023C243.339 2.5596 250.889 -3.52019 259.471 6.9023C268.053 17.3248 277.36 11.245 280.941 6.9023C283.51 2.38903 290.712 -3.92954 298.963 6.9023C307.214 17.7341 315.897 11.4156 319.207 6.9023C322.579 2.38903 331.308 -3.92954 339.252 6.9023C347.197 17.7341 357.274 11.4156 361.32 6.9023C364.763 2.73016 373.148 -3.11085 379.143 6.9023C385.138 16.9155 395.546 11.0744 400 6.9023V397H0.0663794L0.0663522 6.07085C3.3069 1.86309 10.3002 -2.86784 16.6786 6.9023Z" fill="#768E3A"/>
<path d="M16.6786 12.6241C23.4828 22.6266 33.0098 16.7918 36.9227 12.6241C41.04 8.12905 51.3404 1.83596 59.6036 12.6241C67.8668 23.4123 77.4928 17.1192 81.273 12.6241C85.7274 7.6254 96.7021 0.627196 104.965 12.6241C113.228 24.6211 122.313 17.6228 125.822 12.6241C128.514 8.96009 135.805 3.83044 143.431 12.6241C151.056 21.4178 157.816 16.2882 160.242 12.6241C163.884 8.45644 172.992 2.62168 180.287 12.6241C187.582 22.6266 196.966 16.7918 200.746 12.6241C203.647 7.7891 211.314 1.02007 218.768 12.6241C226.222 24.2282 236.453 17.4591 240.636 12.6241C243.339 8.45644 250.889 2.62168 259.471 12.6241C268.053 22.6266 277.36 16.7918 280.941 12.6241C283.51 8.29275 290.712 2.22883 298.963 12.6241C307.214 23.0194 315.897 16.9555 319.207 12.6241C322.579 8.29275 331.308 2.22883 339.252 12.6241C347.197 23.0194 357.274 16.9555 361.32 12.6241C364.763 8.62012 373.148 3.01452 379.143 12.6241C385.138 22.2337 395.546 16.6281 400 12.6241V387H0.0663794L0.0663522 11.8262C3.3069 7.788 10.3002 3.24774 16.6786 12.6241Z" fill="#AEC472"/>
<path d="M400 380H198.542H0" stroke="#FFE175"/>
</svg>
