<svg width="1440" height="408" viewBox="0 0 1440 408" fill="none" xmlns="http://www.w3.org/2000/svg">
<path d="M59.0428 7.09355C83.5381 17.8049 117.835 11.5566 131.922 7.09355C146.744 2.27993 183.825 -4.45913 213.573 7.09355C243.32 18.6462 277.974 11.9072 291.583 7.09355C307.619 1.74059 347.127 -5.75355 376.875 7.09355C406.622 19.9407 439.327 12.4465 451.961 7.09355C461.652 3.16986 487.898 -2.32331 515.351 7.09355C542.803 16.5104 567.136 11.0172 575.872 7.09355C588.984 2.63052 621.773 -3.61773 648.033 7.09355C674.294 17.8048 708.076 11.5566 721.685 7.09355C732.13 1.91589 759.73 -5.33284 786.564 7.09355C813.399 19.5199 850.23 12.2712 865.291 7.09355C875.02 2.63052 902.2 -3.61773 933.095 7.09355C963.99 17.8048 997.496 11.5566 1010.39 7.09355C1019.64 2.45523 1045.56 -4.03842 1075.27 7.09355C1104.97 18.2255 1136.23 11.7319 1148.15 7.09355C1160.28 2.45523 1191.71 -4.03842 1220.31 7.09355C1248.91 18.2255 1285.19 11.7319 1299.75 7.09355C1312.15 2.8058 1342.33 -3.19704 1363.91 7.09355C1385.5 17.3841 1422.96 11.3813 1439 7.09355V408H-0.761034L-0.761132 6.23905C10.9049 1.91471 36.0808 -2.9473 59.0428 7.09355Z" fill="#768E3A"/>
<path d="M59.0428 30.3286C83.5381 39.8848 117.835 34.3103 131.922 30.3286C146.744 26.0341 183.825 20.0218 213.573 30.3286C243.32 40.6354 277.974 34.6231 291.583 30.3286C307.619 25.5529 347.127 18.8669 376.875 30.3286C406.622 41.7902 439.327 35.1042 451.961 30.3286C461.652 26.828 487.898 21.9272 515.351 30.3286C542.803 38.7299 567.136 33.8291 575.872 30.3286C588.984 26.3468 621.773 20.7724 648.033 30.3286C674.294 39.8847 708.076 34.3103 721.685 30.3286C732.13 25.7093 759.73 19.2423 786.564 30.3286C813.399 41.4148 850.23 34.9478 865.291 30.3286C875.02 26.3468 902.2 20.7724 933.095 30.3286C963.99 39.8847 997.496 34.3103 1010.39 30.3286C1019.64 26.1905 1045.56 20.3971 1075.27 30.3286C1104.97 40.26 1136.23 34.4667 1148.15 30.3286C1160.28 26.1905 1191.71 20.3971 1220.31 30.3286C1248.91 40.26 1285.19 34.4667 1299.75 30.3286C1312.15 26.5032 1342.33 21.1477 1363.91 30.3286C1385.5 39.5094 1422.96 34.1539 1439 30.3286V388H-0.761034L-0.761132 29.5662C10.9049 25.7082 36.0808 21.3705 59.0428 30.3286Z" fill="#AEC472"/>
<path d="M714.248 296V370M714.248 370H1440M714.248 370H-1" stroke="#FFE175" stroke-width="3"/>
</svg>
